<svg width="1200" height="460" viewBox="0 0 1200 460" xmlns="http://www.w3.org/2000/svg"><mask id="satori_om-id"><rect x="0" y="0" width="1200" height="460" fill="#fff"/></mask><mask id="satori_om-id-0"><rect x="0" y="0" width="1200" height="460" fill="#fff"/></mask><rect x="0" y="0" width="1200" height="460" fill="#ECECEC"/><mask id="satori_om-id-0-0"><rect x="375" y="81" width="450" height="160" fill="#fff"/></mask><path fill="#040404" d="M401.2 211.7L401.2 178.2C401.2 166.6 401.1 157.7 400.2 152.1L423.9 211.7L439 211.7L462.8 152.0C461.9 158.6 461.9 164.1 461.9 182.9L461.9 211.7L477.8 211.7L477.8 118.2L461.7 118.2L431.4 192.7L401.2 118.2L385.4 118.2L385.4 211.7ZM492.5 180.0C492.5 199.7 506.7 213.3 526.3 213.3C545.9 213.3 560.1 199.7 560.1 180.0C560.1 160.3 545.9 146.7 526.3 146.7C506.7 146.7 492.5 160.3 492.5 180.0ZM508.1 180.0C508.1 168.5 515.5 160.7 526.3 160.7C537.0 160.7 544.5 168.5 544.5 180.0C544.5 191.5 537.0 199.3 526.3 199.3C515.5 199.3 508.1 191.5 508.1 180.0ZM568.8 180.0C568.8 200.1 581.3 213.4 600.5 213.4C617.0 213.4 629.3 203.3 631.3 188.6L615.5 188.6C613.8 195.5 608.3 199.3 600.5 199.3C590.6 199.3 584.4 191.9 584.4 180.0C584.4 168.1 591.1 160.5 601.0 160.5C608.5 160.5 613.7 164.2 615.5 171.4L631.1 171.4C629.5 156.2 617.7 146.6 600.4 146.6C581.7 146.6 568.8 160.4 568.8 180.0ZM658.6 211.7L658.6 194.7L667.9 185.1L684.4 211.7L702.3 211.7L678.7 173.6L702.8 148.5L683.2 148.5L658.6 175.0L658.6 116.5L643.2 116.5L643.2 211.7ZM737.2 213.4C753.8 213.4 765.3 205.1 768.0 191.3L753.5 191.3C751.7 197.3 746.1 200.6 737.5 200.6C727.1 200.6 721.2 195.0 720.1 183.8L767.7 183.7L767.7 179.0C767.7 159.3 755.7 146.6 736.7 146.6C718.2 146.6 705.2 160.3 705.2 180.1C705.2 199.7 718.4 213.4 737.2 213.4ZM736.9 159.4C746.2 159.4 752.2 165.1 752.2 173.8L720.5 173.8C722.0 164.4 727.6 159.4 736.9 159.4ZM819.9 148.2C817.4 147.6 815.2 147.4 813.0 147.4C804.6 147.4 798.6 151.6 795.9 157.8L795.0 148.6L780.2 148.6L780.2 211.7L795.9 211.7L795.9 181.0C795.9 168.7 802.9 162.7 814.2 162.7L819.9 162.7Z "/><mask id="satori_om-id-0-1"><rect x="91" y="257" width="1018" height="40" fill="#fff"/></mask><path fill="#040404" d="M96.1 289.8L96.1 278.6C96.1 275.1 96.0 272.6 95.9 271.7L103.3 289.8L105.5 289.8L113.0 271.6C112.9 273.2 112.8 275.0 112.8 279.0L112.8 289.8L115.1 289.8L115.1 266.9L112.8 266.9L104.4 287.1L96.1 266.9L93.8 266.9L93.8 289.8ZM119.1 282.1C119.1 286.8 122.4 290.2 126.9 290.2C131.5 290.2 134.8 286.8 134.8 282.1C134.8 277.4 131.5 273.9 126.9 273.9C122.4 273.9 119.1 277.4 119.1 282.1ZM121.3 282.1C121.3 278.5 123.6 275.9 126.9 275.9C130.2 275.9 132.6 278.5 132.6 282.1C132.6 285.7 130.2 288.2 126.9 288.2C123.6 288.2 121.3 285.7 121.3 282.1ZM137.2 282.1C137.2 287.0 140.2 290.2 144.6 290.2C148.1 290.2 150.9 288.1 151.6 285.0L149.4 285.0C148.8 287.0 146.9 288.2 144.6 288.2C141.5 288.2 139.4 285.8 139.4 282.1C139.4 278.3 141.6 275.9 144.8 275.9C146.9 275.9 148.8 277.1 149.3 279.2L151.5 279.2C150.9 276.0 148.3 273.9 144.7 273.9C140.2 273.9 137.2 277.3 137.2 282.1ZM157.3 289.8L157.3 285.2L160.3 282.1L165.2 289.8L167.8 289.8L161.8 280.5L167.7 274.3L165.0 274.3L157.3 282.3L157.3 266.5L155.1 266.5L155.1 289.8ZM176.3 290.2C180.0 290.2 182.4 288.5 183.2 285.2L181.1 285.2C180.5 287.2 178.9 288.3 176.4 288.3C173.0 288.3 171.1 286.2 170.9 282.4L183.2 282.4L183.2 281.3C183.2 276.9 180.4 273.9 176.2 273.9C171.8 273.9 168.8 277.3 168.8 282.1C168.8 287.0 171.8 290.2 176.3 290.2ZM176.2 275.8C179.1 275.8 181.0 277.8 181.0 280.8L171.0 280.8C171.4 277.7 173.3 275.8 176.2 275.8ZM194.8 274.2C194.3 274.0 193.9 274.0 193.4 274.0C191.2 274.0 189.6 275.1 189.0 276.7L188.8 274.3L186.7 274.3L186.7 289.8L189.0 289.8L189.0 281C189.0 278.1 190.8 276.1 193.6 276.1L194.8 276.1Z M206.1 282.1C206.1 287.0 209.1 290.2 213.5 290.2C217.0 290.2 219.7 288.1 220.5 285.0L218.2 285.0C217.6 287.0 215.8 288.2 213.5 288.2C210.3 288.2 208.3 285.8 208.3 282.1C208.3 278.3 210.5 275.9 213.6 275.9C215.8 275.9 217.6 277.1 218.2 279.2L220.4 279.2C219.8 276.0 217.2 273.9 213.6 273.9C209.1 273.9 206.1 277.3 206.1 282.1ZM228.3 290.2C230.9 290.2 233.0 289.1 234.0 287.1L234.3 289.8L236.1 289.8L236.1 279.8C236.1 275.7 233.5 273.9 229.9 273.9C226.1 273.9 223.5 275.9 223.5 279.1L225.6 279.1C225.6 277 227.2 275.8 229.8 275.8C232.1 275.8 233.9 276.7 233.9 279.8L233.9 280.3L228.8 280.7C225.2 281 223.0 282.8 223.0 285.6C223.0 288.4 225.0 290.2 228.3 290.2ZM228.8 288.4C226.7 288.4 225.3 287.5 225.3 285.6C225.3 283.8 226.5 282.6 229.4 282.3L233.9 282.0L233.9 282.8C233.9 286.2 232.1 288.4 228.8 288.4ZM242.7 289.8L242.7 281.7C242.7 278.2 244.5 275.9 247.7 275.9C250.3 275.9 251.9 277.2 251.9 280.8L251.9 289.8L254.1 289.8L254.1 280.4C254.1 276.5 252.3 273.9 248.1 273.9C245.8 273.9 243.8 275.0 242.8 277.0L242.5 274.3L240.5 274.3L240.5 289.8Z M266.3 281.6C266.3 285.9 269.0 289.4 273.4 289.4C276.1 289.4 278.2 288.1 279.3 285.9L279.3 289.6C279.3 292.8 277.2 295.0 274.0 295.0C271.2 295.0 269.3 293.5 268.8 291.0L266.6 291.0C267.2 294.7 270.0 297.0 274.0 297.0C278.5 297.0 281.5 294.0 281.5 289.4L281.5 274.3L279.5 274.3L279.3 277.4C278.3 275.2 276.3 273.9 273.6 273.9C269.0 273.9 266.3 277.4 266.3 281.6ZM268.5 281.6C268.5 278.5 270.5 275.9 273.8 275.9C277.2 275.9 279.1 278.3 279.1 281.6C279.1 284.9 277.1 287.4 273.8 287.4C270.5 287.4 268.5 284.8 268.5 281.6ZM292.6 290.2C296.2 290.2 298.6 288.5 299.4 285.2L297.3 285.2C296.8 287.2 295.1 288.3 292.6 288.3C289.3 288.3 287.3 286.2 287.1 282.4L299.4 282.4L299.4 281.3C299.4 276.9 296.6 273.9 292.4 273.9C288.0 273.9 285.0 277.3 285.0 282.1C285.0 287.0 288.0 290.2 292.6 290.2ZM292.4 275.8C295.3 275.8 297.2 277.8 297.2 280.8L287.2 280.8C287.6 277.7 289.5 275.8 292.4 275.8ZM305.2 289.8L305.2 281.7C305.2 278.2 307.0 275.9 310.1 275.9C312.7 275.9 314.3 277.2 314.3 280.8L314.3 289.8L316.5 289.8L316.5 280.4C316.5 276.5 314.8 273.9 310.5 273.9C308.3 273.9 306.2 275.0 305.2 277.0L304.9 274.3L303.0 274.3L303.0 289.8ZM327.4 290.2C331.1 290.2 333.5 288.5 334.3 285.2L332.2 285.2C331.6 287.2 330.0 288.3 327.5 288.3C324.2 288.3 322.2 286.2 322.0 282.4L334.3 282.4L334.3 281.3C334.3 276.9 331.5 273.9 327.3 273.9C322.9 273.9 319.9 277.3 319.9 282.1C319.9 287.0 322.9 290.2 327.4 290.2ZM327.3 275.8C330.2 275.8 332.1 277.8 332.1 280.8L322.1 280.8C322.5 277.7 324.4 275.8 327.3 275.8ZM345.9 274.2C345.4 274.0 345.0 274.0 344.5 274.0C342.3 274.0 340.7 275.1 340.1 276.7L339.9 274.3L337.8 274.3L337.8 289.8L340.1 289.8L340.1 281C340.1 278.1 341.9 276.1 344.7 276.1L345.9 276.1ZM352.7 290.2C355.3 290.2 357.4 289.1 358.4 287.1L358.7 289.8L360.5 289.8L360.5 279.8C360.5 275.7 357.9 273.9 354.3 273.9C350.5 273.9 348.0 275.9 348.0 279.1L350.0 279.1C350.0 277 351.6 275.8 354.3 275.8C356.5 275.8 358.4 276.7 358.4 279.8L358.4 280.3L353.2 280.7C349.6 281 347.4 282.8 347.4 285.6C347.4 288.4 349.4 290.2 352.7 290.2ZM353.2 288.4C351.1 288.4 349.7 287.5 349.7 285.6C349.7 283.8 350.9 282.6 353.8 282.3L358.4 282.0L358.4 282.8C358.4 286.2 356.5 288.4 353.2 288.4ZM368.2 289.8L368.2 276.2L371.3 276.2L371.3 274.3L368.2 274.3L368.2 269.4L366.0 269.4L366.0 274.3L362.9 274.3L362.9 276.2L366.0 276.2L366.0 289.8ZM380.5 290.2C384.2 290.2 386.6 288.5 387.4 285.2L385.3 285.2C384.7 287.2 383.1 288.3 380.6 288.3C377.2 288.3 375.3 286.2 375.1 282.4L387.4 282.4L387.4 281.3C387.4 276.9 384.6 273.9 380.4 273.9C376.0 273.9 373.0 277.3 373.0 282.1C373.0 287.0 376.0 290.2 380.5 290.2ZM380.4 275.8C383.3 275.8 385.2 277.8 385.2 280.8L375.2 280.8C375.5 277.7 377.5 275.8 380.4 275.8Z M403.1 289.8L403.1 280.2C403.1 277.9 404.7 275.9 407.3 275.9C409.6 275.9 411.1 277.5 411.1 280.1L411.1 289.8L413.3 289.8L413.3 280.3C413.3 277.9 414.8 275.9 417.4 275.9C419.8 275.9 421.2 277.5 421.2 280.1L421.2 289.8L423.4 289.8L423.4 279.7C423.4 276.1 421.2 273.9 417.8 273.9C415.3 273.9 413.4 275.2 412.7 277.2C412.0 275.2 410.2 273.9 407.7 273.9C405.6 273.9 403.8 274.9 403.1 276.6L402.8 274.3L400.9 274.3L400.9 289.8ZM426.7 282.1C426.7 286.8 430.1 290.2 434.6 290.2C439.2 290.2 442.5 286.8 442.5 282.1C442.5 277.4 439.2 273.9 434.6 273.9C430.1 273.9 426.7 277.4 426.7 282.1ZM429.0 282.1C429.0 278.5 431.3 275.9 434.6 275.9C437.9 275.9 440.2 278.5 440.2 282.1C440.2 285.7 437.9 288.2 434.6 288.2C431.3 288.2 429.0 285.7 429.0 282.1ZM444.9 282.1C444.9 287.0 447.9 290.2 452.3 290.2C455.8 290.2 458.6 288.1 459.3 285.0L457.0 285.0C456.4 287.0 454.6 288.2 452.3 288.2C449.1 288.2 447.1 285.8 447.1 282.1C447.1 278.3 449.3 275.9 452.4 275.9C454.6 275.9 456.4 277.1 457.0 279.2L459.2 279.2C458.6 276.0 456.0 273.9 452.4 273.9C447.9 273.9 444.9 277.3 444.9 282.1ZM465.0 289.8L465.0 285.2L468.0 282.1L472.9 289.8L475.4 289.8L469.5 280.5L475.4 274.3L472.6 274.3L465.0 282.3L465.0 266.5L462.7 266.5L462.7 289.8Z M493.0 290.2C495.6 290.2 497.8 289.1 498.9 286.7L499.1 289.8L501.0 289.8L501.0 266.5L498.8 266.5L498.8 277.3C497.7 275.0 495.7 273.9 493.1 273.9C488.5 273.9 485.8 277.4 485.8 282.1C485.8 286.8 488.5 290.2 493.0 290.2ZM493.4 288.2C490.0 288.2 488.1 285.6 488.1 282.1C488.1 278.5 490.0 275.9 493.4 275.9C496.8 275.9 498.8 278.5 498.8 282.1C498.8 285.6 496.8 288.2 493.4 288.2ZM510.1 290.2C512.7 290.2 514.8 289.1 515.8 287.1L516.1 289.8L517.9 289.8L517.9 279.8C517.9 275.7 515.3 273.9 511.7 273.9C507.9 273.9 505.3 275.9 505.3 279.1L507.4 279.1C507.4 277 509.0 275.8 511.6 275.8C513.9 275.8 515.7 276.7 515.7 279.8L515.7 280.3L510.6 280.7C507 281 504.8 282.8 504.8 285.6C504.8 288.4 506.8 290.2 510.1 290.2ZM510.6 288.4C508.5 288.4 507.1 287.5 507.1 285.6C507.1 283.8 508.2 282.6 511.2 282.3L515.7 282.0L515.7 282.8C515.7 286.2 513.8 288.4 510.6 288.4ZM525.6 289.8L525.6 276.2L528.7 276.2L528.7 274.3L525.6 274.3L525.6 269.4L523.4 269.4L523.4 274.3L520.3 274.3L520.3 276.2L523.4 276.2L523.4 289.8ZM535.8 290.2C538.4 290.2 540.5 289.1 541.5 287.1L541.8 289.8L543.6 289.8L543.6 279.8C543.6 275.7 541.0 273.9 537.4 273.9C533.6 273.9 531.0 275.9 531.0 279.1L533.0 279.1C533.0 277 534.6 275.8 537.3 275.8C539.6 275.8 541.4 276.7 541.4 279.8L541.4 280.3L536.3 280.7C532.7 281 530.5 282.8 530.5 285.6C530.5 288.4 532.5 290.2 535.8 290.2ZM536.3 288.4C534.2 288.4 532.8 287.5 532.8 285.6C532.8 283.8 533.9 282.6 536.9 282.3L541.4 282.0L541.4 282.8C541.4 286.2 539.5 288.4 536.3 288.4Z M560.7 289.8L562.9 289.8L566.1 280.1C566.5 278.8 566.8 277.9 567.0 277.1C567.2 278.0 567.4 279.0 567.8 280.1L571.0 289.8L573.2 289.8L578.4 274.3L576.1 274.3L573.0 283.7C572.5 285.4 572.4 285.7 572.1 287.0C571.8 285.9 571.4 284.5 571.2 283.7L568.1 274.3L565.8 274.3L562.8 283.7C562.6 284.2 562.1 285.8 561.8 287.0C561.5 285.8 561.2 284.7 560.9 283.7L557.8 274.3L555.6 274.3ZM582.3 270.1C583.2 270.1 583.9 269.4 583.9 268.5C583.9 267.6 583.2 266.8 582.3 266.8C581.4 266.8 580.6 267.6 580.6 268.5C580.6 269.4 581.4 270.1 582.3 270.1ZM581.2 289.8L583.4 289.8L583.4 274.3L581.2 274.3ZM591.5 289.8L591.5 276.2L594.6 276.2L594.6 274.3L591.5 274.3L591.5 269.4L589.4 269.4L589.4 274.3L586.3 274.3L586.3 276.2L589.4 276.2L589.4 289.8ZM599.7 289.8L599.7 281.4C599.7 278.4 601.5 275.9 604.8 275.9C607.2 275.9 608.9 277.2 608.9 280.8L608.9 289.8L611.1 289.8L611.1 280.4C611.1 276.5 609.3 273.9 605.2 273.9C602.6 273.9 600.7 275.2 599.7 277.0L599.7 266.5L597.5 266.5L597.5 289.8Z M624.9 289.8L627.1 283.8L637.7 283.8L639.9 289.8L642.3 289.8L633.8 266.9L630.9 266.9L622.5 289.8ZM632.1 270.2C632.2 269.8 632.3 269.4 632.3 269.2C632.4 269.4 632.5 269.8 632.6 270.2L636.9 281.7L627.8 281.7ZM654.2 281.4C658.6 281.4 661.4 278.3 661.4 274.1C661.4 269.8 658.6 266.9 654.2 266.9L645.5 266.9L645.5 289.8L647.8 289.8L647.8 281.4ZM653.9 269C657.1 269 659.0 270.9 659.0 274.1C659.0 277.2 657.1 279.3 653.8 279.3L647.8 279.3L647.8 269ZM667.4 266.9L665.1 266.9L665.1 289.8L667.4 289.8Z M687.9 290.2C691.5 290.2 693.9 288.5 694.8 285.2L692.7 285.2C692.1 287.2 690.5 288.3 687.9 288.3C684.6 288.3 682.6 286.2 682.5 282.4L694.8 282.4L694.8 281.3C694.8 276.9 691.9 273.9 687.7 273.9C683.3 273.9 680.3 277.3 680.3 282.1C680.3 287.0 683.4 290.2 687.9 290.2ZM687.7 275.8C690.6 275.8 692.6 277.8 692.6 280.8L682.5 280.8C682.9 277.7 684.8 275.8 687.7 275.8ZM700.5 289.8L700.5 281.7C700.5 278.2 702.3 275.9 705.5 275.9C708.0 275.9 709.7 277.2 709.7 280.8L709.7 289.8L711.9 289.8L711.9 280.4C711.9 276.5 710.1 273.9 705.8 273.9C703.6 273.9 701.6 275.0 700.5 277.0L700.2 274.3L698.3 274.3L698.3 289.8ZM722.4 290.2C725.0 290.2 727.1 289.1 728.2 286.7L728.4 289.8L730.4 289.8L730.4 266.5L728.2 266.5L728.2 277.3C727.1 275.0 725.0 273.9 722.5 273.9C717.8 273.9 715.2 277.4 715.2 282.1C715.2 286.8 717.8 290.2 722.4 290.2ZM722.7 288.2C719.4 288.2 717.4 285.6 717.4 282.1C717.4 278.5 719.4 275.9 722.7 275.9C726.1 275.9 728.1 278.5 728.1 282.1C728.1 285.6 726.1 288.2 722.7 288.2ZM735.0 296.6L737.2 296.6L737.2 286.9C738.3 289.1 740.3 290.2 743.0 290.2C747.5 290.2 750.1 286.7 750.1 282.0C750.1 277.4 747.4 273.9 743.0 273.9C740.4 273.9 738.2 275.1 737.1 277.5L736.9 274.3L735.0 274.3ZM737.2 282.1C737.2 278.5 739.2 275.9 742.6 275.9C745.9 275.9 747.9 278.5 747.9 282.1C747.9 285.6 745.9 288.2 742.6 288.2C739.2 288.2 737.2 285.6 737.2 282.1ZM752.6 282.1C752.6 286.8 755.9 290.2 760.4 290.2C765.0 290.2 768.3 286.8 768.3 282.1C768.3 277.4 765.0 273.9 760.4 273.9C755.9 273.9 752.6 277.4 752.6 282.1ZM754.8 282.1C754.8 278.5 757.1 275.9 760.4 275.9C763.7 275.9 766.1 278.5 766.1 282.1C766.1 285.7 763.7 288.2 760.4 288.2C757.1 288.2 754.8 285.7 754.8 282.1ZM772.9 270.1C773.8 270.1 774.6 269.4 774.6 268.5C774.6 267.6 773.8 266.8 772.9 266.8C772.0 266.8 771.3 267.6 771.3 268.5C771.3 269.4 772.0 270.1 772.9 270.1ZM771.8 289.8L774.0 289.8L774.0 274.3L771.8 274.3ZM780.9 289.8L780.9 281.7C780.9 278.2 782.6 275.9 785.8 275.9C788.4 275.9 790.0 277.2 790.0 280.8L790.0 289.8L792.2 289.8L792.2 280.4C792.2 276.5 790.5 273.9 786.2 273.9C784.0 273.9 781.9 275.0 780.9 277.0L780.6 274.3L778.6 274.3L778.6 289.8ZM800.2 289.8L800.2 276.2L803.3 276.2L803.3 274.3L800.2 274.3L800.2 269.4L798.0 269.4L798.0 274.3L794.9 274.3L794.9 276.2L798.0 276.2L798.0 289.8ZM804.9 285.5C804.9 288.4 807.0 290.2 810.5 290.2C814.0 290.2 816.4 288.4 816.4 285.6C816.4 283.4 815.2 282.1 812.5 281.4L809.8 280.8C808.2 280.4 807.3 279.5 807.3 278.3C807.3 276.7 808.5 275.8 810.7 275.8C812.8 275.8 814.0 276.8 814.1 278.6L816.2 278.6C816.2 275.7 814.0 273.9 810.8 273.9C807.4 273.9 805.2 275.7 805.2 278.4C805.2 280.5 806.5 281.9 809.2 282.6L811.8 283.2C813.7 283.7 814.3 284.4 814.3 285.7C814.3 287.4 812.9 288.4 810.5 288.4C808.3 288.4 807.0 287.3 807.0 285.5ZM823.7 288.7C823.7 287.1 822.7 286.2 821.6 286.2C820.4 286.2 819.7 287.0 819.7 288.1C819.7 289.2 820.4 289.9 821.3 289.9C821.7 289.9 822.0 289.8 822.2 289.6C822.2 290.5 821.3 291.4 820.2 291.6L820.2 292.7C822.2 292.5 823.7 290.7 823.7 288.7Z M837.3 296.6L839.5 296.6L839.5 286.9C840.6 289.1 842.7 290.2 845.3 290.2C849.9 290.2 852.5 286.7 852.5 282.0C852.5 277.4 849.8 273.9 845.3 273.9C842.7 273.9 840.5 275.1 839.4 277.5L839.2 274.3L837.3 274.3ZM839.5 282.1C839.5 278.5 841.5 275.9 844.9 275.9C848.3 275.9 850.2 278.5 850.2 282.1C850.2 285.6 848.3 288.2 844.9 288.2C841.5 288.2 839.5 285.6 839.5 282.1ZM854.9 282.1C854.9 286.8 858.2 290.2 862.8 290.2C867.3 290.2 870.6 286.8 870.6 282.1C870.6 277.4 867.3 273.9 862.8 273.9C858.2 273.9 854.9 277.4 854.9 282.1ZM857.1 282.1C857.1 278.5 859.4 275.9 862.8 275.9C866.1 275.9 868.4 278.5 868.4 282.1C868.4 285.7 866.1 288.2 862.8 288.2C859.4 288.2 857.1 285.7 857.1 282.1ZM876.8 289.8L879.0 289.8L882.2 280.1C882.6 278.8 882.8 277.9 883.1 277.1C883.3 278.0 883.5 279.0 883.9 280.1L887.1 289.8L889.2 289.8L894.5 274.3L892.2 274.3L889.1 283.7C888.6 285.4 888.5 285.7 888.2 287.0C887.9 285.9 887.5 284.5 887.2 283.7L884.2 274.3L881.9 274.3L878.8 283.7C878.7 284.2 878.2 285.8 877.9 287.0C877.6 285.8 877.3 284.7 877.0 283.7L873.9 274.3L871.6 274.3ZM903.1 290.2C906.7 290.2 909.1 288.5 909.9 285.2L907.8 285.2C907.3 287.2 905.6 288.3 903.1 288.3C899.8 288.3 897.8 286.2 897.6 282.4L909.9 282.4L909.9 281.3C909.9 276.9 907.1 273.9 902.9 273.9C898.5 273.9 895.5 277.3 895.5 282.1C895.5 287.0 898.5 290.2 903.1 290.2ZM902.9 275.8C905.8 275.8 907.7 277.8 907.7 280.8L897.7 280.8C898.1 277.7 900.0 275.8 902.9 275.8ZM921.6 274.2C921.0 274.0 920.6 274.0 920.1 274.0C917.9 274.0 916.3 275.1 915.7 276.7L915.5 274.3L913.5 274.3L913.5 289.8L915.7 289.8L915.7 281C915.7 278.1 917.5 276.1 920.3 276.1L921.6 276.1ZM930.4 290.2C934.0 290.2 936.4 288.5 937.3 285.2L935.2 285.2C934.6 287.2 933.0 288.3 930.4 288.3C927.1 288.3 925.1 286.2 925.0 282.4L937.3 282.4L937.3 281.3C937.3 276.9 934.4 273.9 930.2 273.9C925.8 273.9 922.8 277.3 922.8 282.1C922.8 287.0 925.8 290.2 930.4 290.2ZM930.2 275.8C933.1 275.8 935.1 277.8 935.1 280.8L925.0 280.8C925.4 277.7 927.3 275.8 930.2 275.8ZM946.9 290.2C949.5 290.2 951.6 289.1 952.7 286.7L953.0 289.8L954.9 289.8L954.9 266.5L952.7 266.5L952.7 277.3C951.6 275.0 949.5 273.9 947.0 273.9C942.4 273.9 939.7 277.4 939.7 282.1C939.7 286.8 942.4 290.2 946.9 290.2ZM947.3 288.2C943.9 288.2 941.9 285.6 941.9 282.1C941.9 278.5 943.9 275.9 947.3 275.9C950.6 275.9 952.6 278.5 952.6 282.1C952.6 285.6 950.6 288.2 947.3 288.2Z M972.2 289.8L972.4 286.7C973.5 289.1 975.7 290.2 978.3 290.2C982.8 290.2 985.5 286.8 985.5 282.1C985.5 277.4 982.8 273.9 978.3 273.9C975.7 273.9 973.6 275.1 972.5 277.4L972.5 266.5L970.3 266.5L970.3 289.8ZM972.5 282.1C972.5 278.5 974.5 275.9 977.9 275.9C981.3 275.9 983.2 278.5 983.2 282.1C983.2 285.6 981.3 288.2 977.9 288.2C974.5 288.2 972.5 285.6 972.5 282.1ZM986.9 296.6C987.6 296.7 988.3 296.8 989.2 296.8C991.4 296.8 993.0 295.8 993.8 293.4L1001.0 274.3L998.7 274.3L993.8 287.8L988.8 274.3L986.5 274.3L992.7 290.8L992.1 292.6C991.3 294.7 989.9 294.8 988.6 294.8L986.9 294.8Z M1011.2 274.3L1011.2 276.2L1013.6 276.2L1013.6 289.8L1015.8 289.8L1015.8 276.2L1019.4 276.2L1019.4 274.3L1015.8 274.3L1015.8 271.3C1015.8 269.5 1016.3 268.5 1018.2 268.5L1019.5 268.5L1019.5 266.6C1019.0 266.5 1018.4 266.5 1017.8 266.5C1015.5 266.5 1013.6 267.8 1013.6 271.3L1013.6 274.3ZM1026.3 290.2C1028.9 290.2 1031.0 289.1 1032.0 287.1L1032.3 289.8L1034.1 289.8L1034.1 279.8C1034.1 275.7 1031.5 273.9 1027.9 273.9C1024.1 273.9 1021.6 275.9 1021.6 279.1L1023.6 279.1C1023.6 277 1025.2 275.8 1027.9 275.8C1030.1 275.8 1032.0 276.7 1032.0 279.8L1032.0 280.3L1026.8 280.7C1023.2 281 1021.0 282.8 1021.0 285.6C1021.0 288.4 1023 290.2 1026.3 290.2ZM1026.8 288.4C1024.7 288.4 1023.3 287.5 1023.3 285.6C1023.3 283.8 1024.5 282.6 1027.4 282.3L1032.0 282.0L1032.0 282.8C1032.0 286.2 1030.1 288.4 1026.8 288.4ZM1040.9 289.8L1040.9 285.2L1043.9 282.1L1048.8 289.8L1051.4 289.8L1045.4 280.5L1051.3 274.3L1048.5 274.3L1040.9 282.3L1040.9 266.5L1038.6 266.5L1038.6 289.8ZM1059.9 290.2C1063.6 290.2 1066.0 288.5 1066.8 285.2L1064.7 285.2C1064.1 287.2 1062.5 288.3 1060.0 288.3C1056.6 288.3 1054.6 286.2 1054.5 282.4L1066.8 282.4L1066.8 281.3C1066.8 276.9 1064.0 273.9 1059.8 273.9C1055.4 273.9 1052.3 277.3 1052.3 282.1C1052.3 287.0 1055.4 290.2 1059.9 290.2ZM1059.8 275.8C1062.7 275.8 1064.6 277.8 1064.6 280.8L1054.6 280.8C1054.9 277.7 1056.9 275.8 1059.8 275.8ZM1078.4 274.2C1077.9 274.0 1077.5 274.0 1077.0 274.0C1074.8 274.0 1073.2 275.1 1072.6 276.7L1072.4 274.3L1070.3 274.3L1070.3 289.8L1072.5 289.8L1072.5 281C1072.5 278.1 1074.4 276.1 1077.2 276.1L1078.4 276.1ZM1080.9 290.2C1082.0 290.2 1082.9 289.3 1082.9 288.2C1082.9 287.1 1082.0 286.2 1080.9 286.2C1079.8 286.2 1078.9 287.1 1078.9 288.2C1078.9 289.3 1079.8 290.2 1080.9 290.2ZM1088.5 270.1C1089.4 270.1 1090.1 269.4 1090.1 268.5C1090.1 267.6 1089.4 266.8 1088.5 266.8C1087.6 266.8 1086.8 267.6 1086.8 268.5C1086.8 269.4 1087.6 270.1 1088.5 270.1ZM1083.3 296.6C1084.1 296.8 1084.5 296.9 1085.3 296.9C1088.1 296.9 1089.6 295.1 1089.6 292.2L1089.6 274.3L1087.4 274.3L1087.4 292.0C1087.4 293.9 1086.7 294.8 1085.2 294.8C1084.7 294.8 1084.3 294.8 1083.7 294.6ZM1092.9 285.5C1092.9 288.4 1095.1 290.2 1098.6 290.2C1102.1 290.2 1104.4 288.4 1104.4 285.6C1104.4 283.4 1103.2 282.1 1100.5 281.4L1097.9 280.8C1096.2 280.4 1095.4 279.5 1095.4 278.3C1095.4 276.7 1096.6 275.8 1098.7 275.8C1100.8 275.8 1102.1 276.8 1102.1 278.6L1104.3 278.6C1104.2 275.7 1102.1 273.9 1098.8 273.9C1095.5 273.9 1093.2 275.7 1093.2 278.4C1093.2 280.5 1094.5 281.9 1097.2 282.6L1099.9 283.2C1101.7 283.7 1102.3 284.4 1102.3 285.7C1102.3 287.4 1100.9 288.4 1098.5 288.4C1096.3 288.4 1095 287.3 1095 285.5Z "/><mask id="satori_om-id-0-2"><rect x="233" y="343" width="734" height="57" fill="#fff"/></mask><mask id="satori_ms-id-0-2-0-1" maskUnits="userSpaceOnUse"><rect x="0" y="0" width="1200" height="460" fill="#fff"/><path x="233" y="343" width="161" height="57" fill="#000"  stroke-width="0" d="M261.5,343 h104 a28.5,28.5 0 0 1 28.5,28.5 v0 a28.5,28.5 0 0 1 -28.5,28.5 h-104 a28.5,28.5 0 0 1 -28.5,-28.5 v0 a28.5,28.5 0 0 1 28.5,-28.5"/></mask><defs><filter id="satori_s-id-0-2-0-1" x="-559.0062111801243%" y="-1578.9473684210525%" width="1218.0124223602486%" height="3257.8947368421054%"><feGaussianBlur stdDeviation="30" result="b"/><feFlood flood-color="rgba(201, 201, 201, 0.60)" in="SourceGraphic" result="f"/><feComposite in="f" in2="b" operator="in"/></filter></defs><g mask="url(#satori_ms-id-0-2-0-1)" filter="url(#satori_s-id-0-2-0-1)" opacity="1"><path x="253" y="363" width="161" height="57" fill="#fff" stroke="#fff" stroke-width="0" d="M281.5,363 h104 a28.5,28.5 0 0 1 28.5,28.5 v0 a28.5,28.5 0 0 1 -28.5,28.5 h-104 a28.5,28.5 0 0 1 -28.5,-28.5 v0 a28.5,28.5 0 0 1 28.5,-28.5"/></g><mask id="satori_ms-id-0-2-0-0" maskUnits="userSpaceOnUse"><rect x="0" y="0" width="1200" height="460" fill="#fff"/><path x="233" y="343" width="161" height="57" fill="#000"  stroke-width="0" d="M261.5,343 h104 a28.5,28.5 0 0 1 28.5,28.5 v0 a28.5,28.5 0 0 1 -28.5,28.5 h-104 a28.5,28.5 0 0 1 -28.5,-28.5 v0 a28.5,28.5 0 0 1 28.5,-28.5"/></mask><defs><filter id="satori_s-id-0-2-0-0" x="-559.0062111801243%" y="-1578.9473684210525%" width="1218.0124223602486%" height="3257.8947368421054%"><feGaussianBlur stdDeviation="30" result="b"/><feFlood flood-color="#FFF" in="SourceGraphic" result="f"/><feComposite in="f" in2="b" operator="in"/></filter></defs><g mask="url(#satori_ms-id-0-2-0-0)" filter="url(#satori_s-id-0-2-0-0)" opacity="1"><path x="213" y="323" width="161" height="57" fill="#fff" stroke="#fff" stroke-width="0" d="M241.5,323 h104 a28.5,28.5 0 0 1 28.5,28.5 v0 a28.5,28.5 0 0 1 -28.5,28.5 h-104 a28.5,28.5 0 0 1 -28.5,-28.5 v0 a28.5,28.5 0 0 1 28.5,-28.5"/></g><mask id="satori_om-id-0-2-0"><rect x="233" y="343" width="161" height="57" fill="#fff"/></mask><path x="233" y="343" width="161" height="57" fill="#ECECEC" d="M261.5,343 h104 a28.5,28.5 0 0 1 28.5,28.5 v0 a28.5,28.5 0 0 1 -28.5,28.5 h-104 a28.5,28.5 0 0 1 -28.5,-28.5 v0 a28.5,28.5 0 0 1 28.5,-28.5"/><mask id="satori_om-id-0-2-0-0"><rect x="253" y="359" width="41" height="25" fill="#fff"/></mask><path fill="#0500FF" d="M262.3 373.3L262.3 371.6L256.6 371.6L256.6 366.8L263.4 366.8L263.4 365.0L254.7 365.0L254.7 379.5L256.6 379.5L256.6 373.3ZM264.1 374.6C264.1 377.6 266.2 379.7 269.2 379.7C272.1 379.7 274.2 377.6 274.2 374.6C274.2 371.6 272.1 369.4 269.2 369.4C266.2 369.4 264.1 371.6 264.1 374.6ZM266.0 374.6C266.0 372.5 267.3 371.1 269.2 371.1C271.0 371.1 272.4 372.5 272.4 374.6C272.4 376.6 271.0 378.0 269.2 378.0C267.3 378.0 266.0 376.6 266.0 374.6ZM281.9 369.6C281.5 369.5 281.3 369.5 280.9 369.5C279.6 369.5 278.6 370.2 278.2 371.2L278.1 369.7L276.3 369.7L276.3 379.5L278.2 379.5L278.2 374.3C278.2 372.4 279.3 371.3 281.1 371.3L281.9 371.3ZM285.6 379.5L285.6 376.7L287.3 375.0L290.1 379.5L292.3 379.5L288.6 373.6L292.3 369.7L289.9 369.7L285.6 374.3L285.6 364.8L283.7 364.8L283.7 379.5Z "/><mask id="satori_om-id-0-2-0-1"><rect x="320" y="352" width="1" height="39" fill="#fff"/></mask><rect x="320" y="352" width="1" height="39" fill="#CCC"/><mask id="satori_om-id-0-2-0-2"><rect x="348" y="359" width="25" height="25" fill="#fff"/></mask><path fill="#000" d="M358.3 379.5L358.3 378.2L351.1 378.2L354.5 375.3C357.3 372.8 358.3 371.4 358.3 369.3C358.3 366.7 356.5 364.9 353.8 364.9C350.9 364.9 349.0 366.9 349.0 369.9L350.4 369.9C350.5 367.7 351.8 366.3 353.7 366.3C355.6 366.3 356.8 367.4 356.8 369.4C356.8 371.1 356.1 372.1 353.5 374.4L348.9 378.4L348.9 379.5ZM360.3 372.4C360.3 376.8 362.5 379.8 366.1 379.8C369.7 379.8 371.8 376.8 371.8 372.4C371.8 367.9 369.6 364.9 366.1 364.9C362.5 364.9 360.3 367.9 360.3 372.4ZM361.8 372.4C361.8 368.6 363.3 366.2 366.1 366.2C368.8 366.2 370.4 368.6 370.4 372.4C370.4 376.1 368.8 378.5 366.1 378.5C363.3 378.5 361.8 376.1 361.8 372.4Z "/><mask id="satori_ms-id-0-2-1-1" maskUnits="userSpaceOnUse"><rect x="0" y="0" width="1200" height="460" fill="#fff"/><path x="517" y="343" width="167" height="57" fill="#000"  stroke-width="0" d="M545.5,343 h110 a28.5,28.5 0 0 1 28.5,28.5 v0 a28.5,28.5 0 0 1 -28.5,28.5 h-110 a28.5,28.5 0 0 1 -28.5,-28.5 v0 a28.5,28.5 0 0 1 28.5,-28.5"/></mask><defs><filter id="satori_s-id-0-2-1-1" x="-538.9221556886228%" y="-1578.9473684210525%" width="1177.8443113772455%" height="3257.8947368421054%"><feGaussianBlur stdDeviation="30" result="b"/><feFlood flood-color="rgba(201, 201, 201, 0.60)" in="SourceGraphic" result="f"/><feComposite in="f" in2="b" operator="in"/></filter></defs><g mask="url(#satori_ms-id-0-2-1-1)" filter="url(#satori_s-id-0-2-1-1)" opacity="1"><path x="537" y="363" width="167" height="57" fill="#fff" stroke="#fff" stroke-width="0" d="M565.5,363 h110 a28.5,28.5 0 0 1 28.5,28.5 v0 a28.5,28.5 0 0 1 -28.5,28.5 h-110 a28.5,28.5 0 0 1 -28.5,-28.5 v0 a28.5,28.5 0 0 1 28.5,-28.5"/></g><mask id="satori_ms-id-0-2-1-0" maskUnits="userSpaceOnUse"><rect x="0" y="0" width="1200" height="460" fill="#fff"/><path x="517" y="343" width="167" height="57" fill="#000"  stroke-width="0" d="M545.5,343 h110 a28.5,28.5 0 0 1 28.5,28.5 v0 a28.5,28.5 0 0 1 -28.5,28.5 h-110 a28.5,28.5 0 0 1 -28.5,-28.5 v0 a28.5,28.5 0 0 1 28.5,-28.5"/></mask><defs><filter id="satori_s-id-0-2-1-0" x="-538.9221556886228%" y="-1578.9473684210525%" width="1177.8443113772455%" height="3257.8947368421054%"><feGaussianBlur stdDeviation="30" result="b"/><feFlood flood-color="#FFF" in="SourceGraphic" result="f"/><feComposite in="f" in2="b" operator="in"/></filter></defs><g mask="url(#satori_ms-id-0-2-1-0)" filter="url(#satori_s-id-0-2-1-0)" opacity="1"><path x="497" y="323" width="167" height="57" fill="#fff" stroke="#fff" stroke-width="0" d="M525.5,323 h110 a28.5,28.5 0 0 1 28.5,28.5 v0 a28.5,28.5 0 0 1 -28.5,28.5 h-110 a28.5,28.5 0 0 1 -28.5,-28.5 v0 a28.5,28.5 0 0 1 28.5,-28.5"/></g><mask id="satori_om-id-0-2-1"><rect x="517" y="343" width="167" height="57" fill="#fff"/></mask><path x="517" y="343" width="167" height="57" fill="#ECECEC" d="M545.5,343 h110 a28.5,28.5 0 0 1 28.5,28.5 v0 a28.5,28.5 0 0 1 -28.5,28.5 h-110 a28.5,28.5 0 0 1 -28.5,-28.5 v0 a28.5,28.5 0 0 1 28.5,-28.5"/><mask id="satori_om-id-0-2-1-0"><rect x="537" y="359" width="54" height="25" fill="#fff"/></mask><path fill="#FF005C" d="M540.6 365.0L538.7 365.0L538.7 379.5L540.6 379.5ZM542.9 376.6C542.9 378.5 544.4 379.7 546.7 379.7C549.0 379.7 550.6 378.5 550.6 376.7C550.6 375.2 549.8 374.5 548.1 374.1L546.4 373.6C545.4 373.4 544.9 373.0 544.9 372.3C544.9 371.4 545.6 370.9 546.8 370.9C547.9 370.9 548.6 371.5 548.6 372.5L550.4 372.5C550.4 370.6 549.0 369.4 546.8 369.4C544.7 369.4 543.2 370.6 543.2 372.4C543.2 373.8 544.0 374.7 545.7 375.1L547.4 375.5C548.5 375.7 548.8 376.1 548.8 376.8C548.8 377.7 548.0 378.2 546.7 378.2C545.5 378.2 544.7 377.6 544.7 376.6ZM551.9 376.6C551.9 378.5 553.3 379.7 555.6 379.7C557.9 379.7 559.5 378.5 559.5 376.7C559.5 375.2 558.7 374.5 557.1 374.1L555.3 373.6C554.4 373.4 553.9 373.0 553.9 372.3C553.9 371.4 554.6 370.9 555.7 370.9C556.9 370.9 557.5 371.5 557.6 372.5L559.4 372.5C559.3 370.6 557.9 369.4 555.8 369.4C553.6 369.4 552.1 370.6 552.1 372.4C552.1 373.8 552.9 374.7 554.7 375.1L556.4 375.5C557.4 375.7 557.7 376.1 557.7 376.8C557.7 377.7 557.0 378.2 555.7 378.2C554.4 378.2 553.7 377.6 553.7 376.6ZM568.4 369.7L568.4 374.9C568.4 377.0 567.4 378.1 565.7 378.1C564.3 378.1 563.4 377.3 563.4 375.2L563.4 369.7L561.5 369.7L561.5 375.8C561.5 378.2 562.8 379.7 565.1 379.7C566.5 379.7 567.8 379.0 568.4 378.0L568.6 379.5L570.2 379.5L570.2 369.7ZM577.0 379.7C579.4 379.7 581.0 378.5 581.5 376.4L579.8 376.4C579.4 377.6 578.5 378.2 577.0 378.2C575.2 378.2 574.1 377.0 573.9 375.0L581.5 374.9L581.5 374.2C581.5 371.3 579.7 369.4 576.9 369.4C574.1 369.4 572.1 371.5 572.1 374.6C572.1 377.6 574.1 379.7 577.0 379.7ZM576.9 371.0C578.6 371.0 579.6 372.1 579.6 373.7L574.0 373.7C574.2 372.0 575.3 371.0 576.9 371.0ZM582.8 376.6C582.8 378.5 584.3 379.7 586.6 379.7C588.9 379.7 590.5 378.5 590.5 376.7C590.5 375.2 589.7 374.5 588.0 374.1L586.3 373.6C585.3 373.4 584.8 373.0 584.8 372.3C584.8 371.4 585.5 370.9 586.7 370.9C587.8 370.9 588.5 371.5 588.5 372.5L590.3 372.5C590.3 370.6 588.9 369.4 586.7 369.4C584.6 369.4 583.1 370.6 583.1 372.4C583.1 373.8 583.9 374.7 585.6 375.1L587.3 375.5C588.4 375.7 588.7 376.1 588.7 376.8C588.7 377.7 587.9 378.2 586.6 378.2C585.4 378.2 584.6 377.6 584.6 376.6Z "/><mask id="satori_om-id-0-2-1-1"><rect x="618" y="352" width="1" height="39" fill="#fff"/></mask><rect x="618" y="352" width="1" height="39" fill="#CCC"/><mask id="satori_om-id-0-2-1-2"><rect x="646" y="359" width="18" height="25" fill="#fff"/></mask><path fill="#000" d="M649.6 366.5L649.6 379.5L651 379.5L651 365.2L646.7 365.2L646.7 366.5ZM663.0 379.5L663.0 378.2L655.8 378.2L659.1 375.3C662 372.8 662.9 371.4 662.9 369.3C662.9 366.7 661.1 364.9 658.4 364.9C655.6 364.9 653.7 366.9 653.6 369.9L655.1 369.9C655.1 367.7 656.4 366.3 658.4 366.3C660.3 366.3 661.5 367.4 661.5 369.4C661.5 371.1 660.8 372.1 658.2 374.4L653.6 378.4L653.6 379.5Z "/><mask id="satori_ms-id-0-2-2-1" maskUnits="userSpaceOnUse"><rect x="0" y="0" width="1200" height="460" fill="#fff"/><path x="808" y="343" width="158" height="57" fill="#000"  stroke-width="0" d="M836.5,343 h101 a28.5,28.5 0 0 1 28.5,28.5 v0 a28.5,28.5 0 0 1 -28.5,28.5 h-101 a28.5,28.5 0 0 1 -28.5,-28.5 v0 a28.5,28.5 0 0 1 28.5,-28.5"/></mask><defs><filter id="satori_s-id-0-2-2-1" x="-569.620253164557%" y="-1578.9473684210525%" width="1239.240506329114%" height="3257.8947368421054%"><feGaussianBlur stdDeviation="30" result="b"/><feFlood flood-color="rgba(201, 201, 201, 0.60)" in="SourceGraphic" result="f"/><feComposite in="f" in2="b" operator="in"/></filter></defs><g mask="url(#satori_ms-id-0-2-2-1)" filter="url(#satori_s-id-0-2-2-1)" opacity="1"><path x="828" y="363" width="158" height="57" fill="#fff" stroke="#fff" stroke-width="0" d="M856.5,363 h101 a28.5,28.5 0 0 1 28.5,28.5 v0 a28.5,28.5 0 0 1 -28.5,28.5 h-101 a28.5,28.5 0 0 1 -28.5,-28.5 v0 a28.5,28.5 0 0 1 28.5,-28.5"/></g><mask id="satori_ms-id-0-2-2-0" maskUnits="userSpaceOnUse"><rect x="0" y="0" width="1200" height="460" fill="#fff"/><path x="808" y="343" width="158" height="57" fill="#000"  stroke-width="0" d="M836.5,343 h101 a28.5,28.5 0 0 1 28.5,28.5 v0 a28.5,28.5 0 0 1 -28.5,28.5 h-101 a28.5,28.5 0 0 1 -28.5,-28.5 v0 a28.5,28.5 0 0 1 28.5,-28.5"/></mask><defs><filter id="satori_s-id-0-2-2-0" x="-569.620253164557%" y="-1578.9473684210525%" width="1239.240506329114%" height="3257.8947368421054%"><feGaussianBlur stdDeviation="30" result="b"/><feFlood flood-color="#FFF" in="SourceGraphic" result="f"/><feComposite in="f" in2="b" operator="in"/></filter></defs><g mask="url(#satori_ms-id-0-2-2-0)" filter="url(#satori_s-id-0-2-2-0)" opacity="1"><path x="788" y="323" width="158" height="57" fill="#fff" stroke="#fff" stroke-width="0" d="M816.5,323 h101 a28.5,28.5 0 0 1 28.5,28.5 v0 a28.5,28.5 0 0 1 -28.5,28.5 h-101 a28.5,28.5 0 0 1 -28.5,-28.5 v0 a28.5,28.5 0 0 1 28.5,-28.5"/></g><mask id="satori_om-id-0-2-2"><rect x="808" y="343" width="158" height="57" fill="#fff"/></mask><path x="808" y="343" width="158" height="57" fill="#ECECEC" d="M836.5,343 h101 a28.5,28.5 0 0 1 28.5,28.5 v0 a28.5,28.5 0 0 1 -28.5,28.5 h-101 a28.5,28.5 0 0 1 -28.5,-28.5 v0 a28.5,28.5 0 0 1 28.5,-28.5"/><mask id="satori_om-id-0-2-2-0"><rect x="828" y="359" width="45" height="25" fill="#fff"/></mask><path fill="#FF7A00" d="M828.8 368.9C828.8 371.0 830.1 372.4 832.4 372.9L834.8 373.4C836.2 373.8 836.8 374.5 836.8 375.6C836.8 377.1 835.6 378.0 833.7 378.0C831.8 378.0 830.7 377.1 830.6 375.7L828.6 375.7C828.8 378.2 830.7 379.7 833.7 379.7C836.7 379.7 838.8 378.1 838.8 375.5C838.8 373.4 837.6 372.1 835.2 371.6L832.8 371.0C831.5 370.7 830.8 370.0 830.8 368.9C830.8 367.4 832.0 366.5 833.8 366.5C835.4 366.5 836.4 367.4 836.5 368.8L838.5 368.8C838.4 366.3 836.6 364.8 833.8 364.8C830.8 364.8 828.8 366.4 828.8 368.9ZM843.7 379.5L843.7 371.3L845.6 371.3L845.6 369.7L843.7 369.7L843.7 366.6L841.8 366.6L841.8 369.7L839.9 369.7L839.9 371.3L841.8 371.3L841.8 379.5ZM850 379.7C851.6 379.7 852.9 379.0 853.4 377.9L853.6 379.5L855.2 379.5L855.2 373.3C855.2 370.7 853.6 369.4 851.2 369.4C848.6 369.4 847.0 370.8 847.0 372.8L848.6 372.8C848.6 371.6 849.5 370.9 851.1 370.9C852.4 370.9 853.4 371.5 853.4 373.1L853.4 373.4L850.3 373.7C848 373.8 846.7 375.0 846.7 376.8C846.7 378.5 847.9 379.7 850 379.7ZM850.5 378.3C849.3 378.3 848.6 377.7 848.6 376.7C848.6 375.7 849.2 375.1 850.9 374.9L853.4 374.7L853.4 375.3C853.4 377.1 852.3 378.3 850.5 378.3ZM863.4 369.6C863.0 369.5 862.8 369.5 862.4 369.5C861.1 369.5 860.1 370.2 859.7 371.2L859.6 369.7L857.8 369.7L857.8 379.5L859.7 379.5L859.7 374.3C859.7 372.4 860.8 371.3 862.6 371.3L863.4 371.3ZM864.4 376.6C864.4 378.5 865.8 379.7 868.1 379.7C870.5 379.7 872.1 378.5 872.1 376.7C872.1 375.2 871.2 374.5 869.6 374.1L867.9 373.6C866.9 373.4 866.4 373.0 866.4 372.3C866.4 371.4 867.1 370.9 868.3 370.9C869.4 370.9 870.1 371.5 870.1 372.5L871.9 372.5C871.9 370.6 870.5 369.4 868.3 369.4C866.2 369.4 864.6 370.6 864.6 372.4C864.6 373.8 865.5 374.7 867.2 375.1L868.9 375.5C869.9 375.7 870.3 376.1 870.3 376.8C870.3 377.7 869.5 378.2 868.2 378.2C866.9 378.2 866.2 377.6 866.2 376.6Z "/><mask id="satori_om-id-0-2-2-1"><rect x="900" y="352" width="1" height="39" fill="#fff"/></mask><rect x="900" y="352" width="1" height="39" fill="#CCC"/><mask id="satori_om-id-0-2-2-2"><rect x="928" y="359" width="18" height="25" fill="#fff"/></mask><path fill="#000" d="M931.6 366.5L931.6 379.5L933 379.5L933 365.2L928.7 365.2L928.7 366.5ZM945.0 379.5L945.0 378.2L937.8 378.2L941.1 375.3C944 372.8 944.9 371.4 944.9 369.3C944.9 366.7 943.1 364.9 940.4 364.9C937.6 364.9 935.7 366.9 935.6 369.9L937.1 369.9C937.1 367.7 938.4 366.3 940.4 366.3C942.3 366.3 943.5 367.4 943.5 369.4C943.5 371.1 942.8 372.1 940.2 374.4L935.6 378.4L935.6 379.5Z "/></svg>